<svg width="400" height="100" xmlns="http://www.w3.org/2000/svg">
  <defs>
    <linearGradient id="gradient" x1="0%" y1="0%" x2="100%" y2="100%">
      <stop offset="0%" style="stop-color:#0066cc;stop-opacity:1" />
      <stop offset="100%" style="stop-color:#005288;stop-opacity:1" />
    </linearGradient>
    <linearGradient id="shieldGradient" x1="0%" y1="0%" x2="100%" y2="100%">
      <stop offset="0%" style="stop-color:#FFD700;stop-opacity:1" />
      <stop offset="100%" style="stop-color:#FFA500;stop-opacity:1" />
    </linearGradient>
  </defs>

  <!-- Unified chat bubble shield icon -->
  <g transform="translate(16, 10) scale(2)">
    <!-- Shadow -->
    <ellipse cx="20" cy="34" rx="18" ry="3" fill="#00000020"/>

    <!-- Cape effect behind -->
    <path d="M 12 8 Q 6 14, 7 24 Q 8 30, 10 36 L 10 8" fill="#A7A9AC" opacity="0.4"/>
    <path d="M 28 8 Q 34 14, 33 24 Q 32 30, 30 36 L 30 8" fill="#A7A9AC" opacity="0.4"/>

    <!-- Main shield shape with chat bubble integrated -->
    <path d="M 20 4 L 32 10 L 32 20 Q 32 30, 20 38 Q 8 30, 8 20 L 8 10 Z" fill="url(#shieldGradient)"/>

    <!-- Chat bubble element inside shield -->
    <g opacity="0.95">
      <rect x="12" y="14" width="16" height="11" rx="2.5" fill="url(#gradient)"/>
      <polygon points="16,25 19,28 19,25" fill="url(#gradient)"/>

      <!-- Chat lines -->
      <line x1="14.5" y1="17.5" x2="25.5" y2="17.5" stroke="white" stroke-width="1" stroke-linecap="round"/>
      <line x1="14.5" y1="21" x2="22" y2="21" stroke="white" stroke-width="1" stroke-linecap="round"/>
    </g>

    <!-- Star accent at top -->
    <path d="M 20 8 L 20.8 10.2 L 23 10.2 L 21.2 11.5 L 22 13.5 L 20 12 L 18 13.5 L 18.8 11.5 L 17 10.2 L 19.2 10.2 Z" fill="white" opacity="0.9"/>
  </g>

  <!-- ChatHero text with modern font -->
  <text x="105" y="66" font-family="'Segoe UI', Arial, sans-serif" font-size="44" font-weight="600" fill="#005288" letter-spacing="1">
    ChatHero
  </text>
</svg>
